<?xml version="1.0" standalone="no"?>
<!DOCTYPE svg PUBLIC "-//W3C//DTD SVG 20010904//EN"
 "http://www.w3.org/TR/2001/REC-SVG-20010904/DTD/svg10.dtd">
<svg version="1.0" xmlns="http://www.w3.org/2000/svg"
 width="512.000000pt" height="512.000000pt" viewBox="0 0 512.000000 512.000000"
 preserveAspectRatio="xMidYMid meet">
<metadata>
Created by potrace 1.14, written by Peter Selinger 2001-2017
</metadata>
<g transform="translate(0.000000,512.000000) scale(0.100000,-0.100000)"
fill="#000000" stroke="none">
<path d="M1015 4555 c-50 -13 -100 -45 -131 -84 -11 -14 -137 -210 -279 -436
-142 -225 -321 -509 -398 -630 -76 -121 -152 -241 -169 -267 -16 -26 -32 -66
-35 -88 -11 -78 42 -161 117 -185 31 -10 4799 -13 4858 -3 88 15 151 100 139
188 -4 30 -107 201 -438 725 -238 377 -447 699 -463 717 -17 17 -51 40 -76 52
-45 20 -52 20 -1563 21 -1083 0 -1531 -3 -1562 -10z m3079 -185 c26 -27 846
-1322 846 -1336 0 -7 -2975 -9 -4728 -4 l-43 0 19 28 c11 15 198 311 417 657
218 347 406 640 417 652 11 12 32 23 47 25 14 2 695 3 1514 3 l1487 -1 24 -24z"/>
<path d="M1424 4219 c-27 -10 -53 -41 -57 -70 -11 -64 59 -114 120 -86 30 13
52 54 46 87 -8 50 -64 86 -109 69z"/>
<path d="M2191 4218 c-38 -13 -59 -49 -55 -87 6 -44 10 -50 49 -67 41 -17 86
-4 105 31 38 71 -26 150 -99 123z"/>
<path d="M2884 4222 c-52 -8 -82 -79 -56 -129 18 -33 74 -48 110 -29 84 44 40
174 -54 158z"/>
<path d="M3631 4213 c-91 -44 -35 -179 63 -152 59 16 79 88 36 134 -28 30 -62
36 -99 18z"/>
<path d="M1238 3785 c-46 -25 -54 -92 -17 -131 48 -52 139 -17 141 54 1 34
-25 82 -45 82 -6 0 -21 2 -32 5 -11 3 -32 -2 -47 -10z"/>
<path d="M2081 3775 c-76 -65 -1 -175 94 -139 8 4 23 20 31 36 43 84 -53 163
-125 103z"/>
<path d="M2950 3787 c-79 -40 -53 -157 35 -157 25 0 44 8 60 25 66 65 -11 174
-95 132z"/>
<path d="M3798 3785 c-46 -25 -56 -84 -22 -125 64 -76 183 2 138 91 -12 24
-52 49 -77 49 -7 -1 -24 -7 -39 -15z"/>
<path d="M1055 3348 c-38 -34 -40 -84 -5 -120 44 -44 111 -32 134 24 36 83
-61 155 -129 96z"/>
<path d="M1990 3341 c-76 -75 35 -189 114 -116 35 32 36 86 1 120 -34 35 -78
33 -115 -4z"/>
<path d="M3023 3355 c-69 -48 -30 -155 57 -155 29 0 69 41 75 78 11 66 -76
116 -132 77z"/>
<path d="M3967 3359 c-29 -17 -45 -60 -35 -96 17 -62 85 -82 134 -39 74 63
-14 184 -99 135z"/>
<path d="M140 2675 c-27 -14 -113 -142 -131 -194 -18 -51 -3 -117 37 -161 19
-21 49 -43 66 -49 22 -8 737 -10 2464 -8 l2432 2 39 31 c64 51 88 129 60 195
-25 60 -105 175 -129 186 -31 14 -68 7 -95 -19 -39 -37 -29 -85 42 -190 l25
-37 -2385 -1 c-1312 0 -2385 2 -2385 6 0 3 18 36 40 73 46 78 51 117 16 150
-29 28 -64 34 -96 16z"/>
<path d="M133 2075 c-31 -22 -121 -171 -129 -213 -13 -66 27 -146 89 -179 30
-16 195 -18 2447 -19 1417 -1 2430 2 2452 7 78 20 137 107 125 185 -7 42 -78
166 -118 207 -35 35 -81 36 -114 2 -36 -35 -33 -79 10 -143 19 -29 36 -60 37
-70 3 -15 -146 -17 -2374 -17 -1308 0 -2378 3 -2378 7 0 4 18 35 40 69 48 74
52 118 15 154 -28 29 -70 32 -102 10z"/>
<path d="M1163 1485 c-17 -7 -36 -22 -42 -34 -15 -27 -15 -485 0 -512 16 -30
67 -49 100 -37 56 19 59 35 59 290 0 255 -4 273 -55 294 -24 10 -37 10 -62 -1z"/>
<path d="M2857 1476 c-19 -13 -33 -33 -37 -51 -3 -17 -5 -130 -5 -252 1 -217
2 -223 24 -247 12 -13 33 -26 46 -29 31 -5 80 19 92 46 6 13 10 121 9 259 -1
233 -1 237 -24 261 -33 35 -66 39 -105 13z"/>
<path d="M3546 1483 c-14 -7 -30 -22 -35 -32 -9 -17 -13 -130 -12 -389 1 -106
2 -114 26 -137 46 -47 124 -25 140 38 3 12 5 127 3 255 l-3 233 -25 19 c-33
25 -63 29 -94 13z"/>
<path d="M4230 1485 c-46 -24 -49 -45 -50 -287 0 -127 4 -238 10 -253 13 -35
64 -56 102 -43 56 20 58 30 58 294 0 216 -2 244 -17 263 -25 29 -73 42 -103
26z"/>
<path d="M29 1471 l-24 -19 0 -359 0 -358 28 -47 c15 -26 43 -60 62 -75 78
-63 -94 -59 2482 -58 2150 1 2351 3 2384 18 53 24 96 63 127 116 l27 46 3 352
3 353 -25 25 c-34 34 -88 34 -121 0 l-25 -24 0 -320 c0 -178 -4 -331 -10 -345
-5 -14 -19 -30 -32 -37 -30 -17 -4632 -20 -4682 -4 -54 18 -56 30 -56 381 0
310 -1 322 -21 348 -26 32 -84 36 -120 7z"/>
<path d="M455 1465 c-28 -27 -27 -11 -27 -303 -1 -206 0 -213 21 -236 28 -30
47 -35 88 -24 56 15 60 36 60 288 0 124 -4 236 -9 249 -20 55 -91 69 -133 26z"/>
<path d="M795 1465 c-23 -22 -25 -31 -26 -132 -2 -283 2 -378 16 -399 34 -52
124 -44 146 12 6 18 9 118 7 267 l-3 238 -25 19 c-36 28 -85 26 -115 -5z"/>
<path d="M1479 1469 c-24 -21 -24 -22 -27 -258 -2 -143 1 -248 7 -264 14 -36
57 -56 98 -45 58 15 63 35 64 229 0 329 2 307 -26 334 -31 32 -82 33 -116 4z"/>
<path d="M1829 1477 c-36 -28 -40 -53 -39 -284 2 -275 7 -293 91 -293 40 0 79
39 80 82 0 18 1 127 1 241 0 193 -1 211 -19 235 -23 30 -86 41 -114 19z"/>
<path d="M2159 1464 c-24 -26 -24 -26 -25 -262 -1 -137 3 -246 9 -259 12 -27
61 -51 92 -46 13 3 34 16 46 30 23 24 23 27 24 269 l0 246 -28 24 c-38 33 -86
32 -118 -2z"/>
<path d="M2499 1464 c-24 -26 -24 -26 -24 -260 -1 -257 4 -286 53 -300 42 -11
65 -5 93 25 l25 27 -1 241 c0 241 0 242 -24 267 -34 36 -88 36 -122 0z"/>
<path d="M3181 1464 c-24 -31 -23 -15 -23 -290 0 -231 3 -247 55 -269 44 -18
85 -2 103 41 18 44 20 464 2 497 -17 34 -39 46 -80 47 -28 0 -41 -6 -57 -26z"/>
<path d="M3865 1465 l-25 -24 0 -238 c0 -265 4 -281 60 -299 40 -13 82 2 100
35 6 12 10 115 10 261 l0 241 -25 24 c-16 17 -35 25 -60 25 -25 0 -44 -8 -60
-25z"/>
<path d="M4553 1470 c-29 -27 -32 -47 -31 -290 0 -239 6 -263 63 -279 38 -10
64 -1 89 32 18 25 20 43 20 268 l-1 242 -27 24 c-34 29 -84 30 -113 3z"/>
</g>
</svg>
